<svg xmlns="http://www.w3.org/2000/svg" xmlns:xlink="http://www.w3.org/1999/xlink" viewBox="0,0,256,256" width="200px" height="200px" fill-rule="nonzero"><g transform=""><g fill="#000000" fill-rule="nonzero" stroke="none" stroke-width="1" stroke-linecap="butt" stroke-linejoin="miter" stroke-miterlimit="10" stroke-dasharray="" stroke-dashoffset="0" font-family="none" font-weight="none" font-size="none" text-anchor="none" style="mix-blend-mode: normal"><path d="M0,256v-256h256v256z" id="bgRectangle"></path></g><g fill="#f3ff00" fill-rule="nonzero" stroke="none" stroke-width="1" stroke-linecap="butt" stroke-linejoin="miter" stroke-miterlimit="10" stroke-dasharray="" stroke-dashoffset="0" font-family="none" font-weight="none" font-size="none" text-anchor="none" style="mix-blend-mode: normal"><g transform="scale(2.56,2.56)"><path d="M46.88672,9.97266c-0.22388,0 -0.47322,0.00127 -0.73242,0.01953c-0.002,0.00006 -0.00386,-0.00006 -0.00586,0c-11.28088,0.31776 -20.90025,8.1072 -23.55469,18.82617l-2.49609,1.5332c-0.00196,0.00065 -0.00391,0.0013 -0.00586,0.00195c-1.58012,0.98319 -2.66979,2.57271 -2.97266,4.37109c-0.09423,0.44103 -0.13065,0.88703 -0.11914,1.32422c-0.00001,0.00195 -0.00001,0.00391 0,0.00586l0.30078,9.23047c-0.00001,0.00195 -0.00001,0.00391 0,0.00586c0.06363,1.69258 1.05178,3.22754 2.58594,3.98828l0.58984,0.29297c-0.37841,6.80342 -0.47474,12.97814 -0.25195,17.44922c0,0.0013 0,0.0026 0,0.00391c0.0246,0.4518 0.11775,0.88695 0.25391,1.29297c0.33676,1.00249 1.0298,1.84438 1.92773,2.41602c0.00454,0.00264 0.00909,0.00524 0.01367,0.00781c1.01759,0.62335 2.37218,1.33371 3.85938,2.06445c1.04019,3.50368 4.28061,7.51706 8.52734,10.88867c4.43675,3.52248 9.93082,6.2793 15.18555,6.2793c5.25469,0 10.74683,-2.75694 15.18359,-6.2793c4.24674,-3.3715 7.48912,-7.38457 8.5293,-10.88867c1.48694,-0.73003 2.84059,-1.44157 3.85742,-2.06445c0.00196,-0.00065 0.00391,-0.0013 0.00586,-0.00195c1.30776,-0.81119 2.11908,-2.20401 2.19141,-3.7168v-0.00391c0.22329,-4.47107 0.1277,-10.64252 -0.25,-17.44141l0.60352,-0.29883c1.53416,-0.76074 2.52231,-2.2957 2.58594,-3.98828c0.00001,-0.00195 0.00001,-0.00391 0,-0.00586l0.30078,-9.23047c0.00001,-0.00195 0.00001,-0.00391 0,-0.00586c0.0115,-0.43719 -0.02487,-0.88314 -0.11914,-1.32422c-0.30287,-1.79839 -1.39253,-3.38791 -2.97266,-4.37109c-0.00195,-0.00131 -0.0039,-0.00261 -0.00586,-0.00391l-2.50977,-1.53516c-2.65682,-10.71629 -12.27814,-18.50359 -23.55859,-18.82227c-0.002,-0.00006 -0.00386,0.00006 -0.00586,0c-0.25887,-0.01824 -0.5057,-0.01953 -0.73047,-0.01953zM46.88672,11.97266h0.09375v19.39648c0,1.58435 1.35971,2.85352 3.01172,2.85352c1.65177,0 3.0293,-1.26454 3.0293,-2.85352v-19.39648h0.07617c0.241,0 0.45891,0.0023 0.62305,0.01563c0.01756,0.00111 0.03514,0.00177 0.05273,0.00195c0.29024,0.00813 0.57361,0.04376 0.86133,0.0625l0.08594,1.12891c0.02103,0.2756 0.26151,0.48197 0.53711,0.46094c0.2756,-0.02103 0.48197,-0.26151 0.46094,-0.53711l-0.07617,-0.97852c9.68007,1.05205 17.68506,8.06486 19.87695,17.47852c0,0.00065 0,0.0013 0,0.00195c0.01043,0.06599 0.02744,0.13076 0.05078,0.19336c0.00065,0.0013 0.0013,0.00261 0.00195,0.00391c0.15013,0.67271 0.27009,1.35727 0.35938,2.05273c-5.41271,2.82924 -12.62884,4.56693 -18.43359,5.43945l-1.07031,-14.44141c-0.01634,-0.26087 -0.23083,-0.46515 -0.49219,-0.46875c-0.14107,-0.00161 -0.27626,0.05645 -0.37223,0.15986c-0.09597,0.10341 -0.14379,0.24255 -0.13167,0.38311l1.07227,14.50977c-2.63278,0.36084 -4.94628,0.55469 -6.51172,0.55469c-1.56483,0 -3.87668,-0.19414 -6.50781,-0.55469l1.86328,-25.38672c0.28833,-0.01878 0.57242,-0.05437 0.86328,-0.0625c0.01759,-0.00019 0.03518,-0.00084 0.05273,-0.00195c0.16389,-0.01329 0.38305,-0.01562 0.62305,-0.01562zM47.98047,11.97266h4.04102v19.39648c0,1.01103 -0.87907,1.85352 -2.0293,1.85352c-1.14999,0 -2.01172,-0.83986 -2.01172,-1.85352zM44.3418,12.12695l-1.84961,25.16992c-5.80473,-0.87229 -13.02286,-2.60946 -18.4375,-5.43945c0.08888,-0.69281 0.20816,-1.3747 0.35742,-2.04492c0.02775,-0.07046 0.04741,-0.14385 0.05859,-0.21875c2.19525,-9.40823 10.19603,-16.41594 19.87109,-17.4668zM55.43359,15.52148c-0.14107,-0.00161 -0.27626,0.05645 -0.37223,0.15986c-0.09597,0.10341 -0.14379,0.24255 -0.13167,0.38311l0.3457,4.69531c0.02059,0.27553 0.26059,0.48222 0.53612,0.46173c0.27553,-0.02049 0.48232,-0.26041 0.46193,-0.53595l-0.3457,-4.69336c-0.01541,-0.26238 -0.23132,-0.46805 -0.49414,-0.4707zM77.89844,31.46875l0.95898,0.58789c1.11159,0.694 1.8559,1.79726 2.05664,3.00977c0.00278,0.01766 0.00604,0.03525 0.00977,0.05273c0.05903,0.26562 0.08416,0.56583 0.07617,0.875l-0.29883,9.2207c-0.03418,0.90908 -0.53606,1.71393 -1.33008,2.17383c-0.06797,-1.07032 -0.12119,-2.11248 -0.20312,-3.20508c-0.29621,-4.02087 -0.70457,-8.14965 -1.20312,-12.22461c-0.00439,-0.17431 -0.01562,-0.21583 -0.01562,-0.06836c-0.00015,-0.04049 -0.00276,-0.08092 -0.00781,-0.12109c-0.01226,-0.10097 -0.0295,-0.20022 -0.04297,-0.30078zM22.08789,31.47461c-0.01318,0.09866 -0.03095,0.19587 -0.04297,0.29492c-0.00505,0.04017 -0.00766,0.08061 -0.00781,0.12109c0,-0.14747 -0.01124,-0.10595 -0.01562,0.06836c-0.49855,4.07496 -0.90691,8.20374 -1.20312,12.22461c-0.08173,1.08996 -0.13526,2.12951 -0.20312,3.19727c-0.78593,-0.46135 -1.28243,-1.26219 -1.31641,-2.16602l-0.29883,-9.21875v-0.00195v-0.00391c-0.0077,-0.30772 0.01741,-0.60665 0.07617,-0.87109c0.00373,-0.01749 0.00698,-0.03507 0.00977,-0.05273c0.20111,-1.21472 0.94753,-2.31991 2.0625,-3.01367l-0.00586,0.00195zM23.93359,32.84961c5.67736,2.90421 12.97735,4.64734 18.80859,5.49805c0.08859,0.04028 0.18701,0.05386 0.2832,0.03906c2.79558,0.39702 5.26689,0.60742 6.9668,0.60742c1.7005,0 4.17352,-0.21012 6.9707,-0.60742c0.09829,0.01537 0.19893,0.00109 0.28906,-0.04102c5.82999,-0.85113 13.12515,-2.59387 18.79883,-5.49609c0.44412,3.70811 0.81464,7.44968 1.08984,11.10742c-1.80797,0.44506 -3.55422,1.05957 -5.17773,1.94141c-0.16174,0.08258 -0.26599,0.24636 -0.27234,0.42786c-0.00635,0.18149 0.08619,0.35216 0.24175,0.44586c0.15557,0.09369 0.3497,0.09568 0.50715,0.00519c1.2253,-0.66554 2.51267,-1.19443 3.84766,-1.60547c-2.04881,1.95328 -4.19929,5.13965 -4.3418,9.44531c-3.00187,0.233 -6.54236,2.82882 -9.48633,6.79297c-1.40373,1.89017 -2.64466,4.09945 -3.59766,6.50195c0.95668,-4.91318 2.59467,-9.14871 4.76953,-12.61914c0.09491,-0.15142 0.10183,-0.34197 0.01814,-0.49987c-0.08368,-0.1579 -0.24525,-0.25916 -0.42384,-0.26563c-0.17859,-0.00647 -0.34706,0.08283 -0.44196,0.23426c-3.53806,5.64569 -5.64052,13.19299 -5.84766,22.24219c-0.64976,0.15824 -1.29078,0.29887 -1.91992,0.42188c-0.14545,0.02835 -0.29746,0.06545 -0.44141,0.0918c-0.59502,0.10876 -1.1693,0.19154 -1.73047,0.25977l1.78906,-22.33398c0.27979,-3.42269 2.56655,-6.34293 5.82227,-7.48633l10.09375,-3.49219c1.85353,-0.63746 3.2848,-2.13061 3.83008,-3.98828c0.00001,-0.0013 0.00001,-0.0026 0,-0.00391l1.05469,-3.67578c0.05307,-0.18727 -0.00736,-0.38832 -0.15488,-0.51531c-0.14752,-0.12699 -0.35532,-0.15683 -0.53262,-0.07649c-11.92858,5.44518 -21.70823,5.66406 -24.75391,5.66406c-2.84746,0 -12.7013,-0.3552 -24.75781,-5.66797c-0.06094,-0.02707 -0.12669,-0.04168 -0.19336,-0.04297c-0.15851,-0.00249 -0.30881,0.07034 -0.4051,0.19628c-0.09629,0.12594 -0.12715,0.29008 -0.08318,0.44239l1.05273,3.67578c0.00065,0.0013 0.0013,0.00261 0.00195,0.00391c0.55088,1.87779 2.00938,3.38618 3.89063,4.00781c1.24283,0.43469 4.35265,1.50392 5.53906,1.91797c0.00065,0 0.0013,0 0.00195,0l4.49219,1.55469c3.20973,1.10801 5.5552,4.07009 5.82227,7.48438l1.78906,22.33594c-1.28572,-0.15691 -2.673,-0.43036 -4.0957,-0.77734c-0.41716,-18.10384 -8.55172,-30.14249 -20.20117,-33.06445c0.27502,-3.65099 0.64463,-7.38503 1.08789,-11.08594zM25.78516,37.46484c11.76769,4.97451 21.35696,5.4043 24.20703,5.4043c3.00792,0 12.55752,-0.30582 24.20703,-5.39453l-0.78125,2.72266c-0.45367,1.54036 -1.64827,2.79021 -3.19531,3.32227l-10.0957,3.49219c-0.00065,0.00065 -0.0013,0.0013 -0.00195,0.00195c-3.62139,1.27101 -6.17807,4.52893 -6.49023,8.34766c0,0.00065 0,0.0013 0,0.00195l-1.80469,22.5293c-0.25426,0.029 -0.51266,0.06084 -0.75977,0.07617c-0.09122,0.00565 -0.17733,0.00378 -0.26758,0.00781c-0.27115,0.01159 -0.54224,0.02337 -0.80469,0.02344h-0.00195c-0.59112,-0.00006 -1.20836,-0.03611 -1.84375,-0.10937l-1.80273,-22.52734v-0.00195c-0.29962,-3.8203 -2.90543,-7.11138 -6.49023,-8.34961h-0.00195l-4.49023,-1.55469h-0.00195c-1.1968,-0.41766 -4.3147,-1.4896 -5.54492,-1.91992c-0.0026,-0.00067 -0.0052,-0.00132 -0.00781,-0.00195c-1.56732,-0.5179 -2.78604,-1.78163 -3.24414,-3.33789v-0.00195l-0.00195,-0.00195zM23.6875,45.16016c8.56905,2.6313 15.05996,10.59276 17.42383,22.69336c-0.95155,-2.37939 -2.18434,-4.56875 -3.57812,-6.44336c-2.94734,-3.96411 -6.49004,-6.55998 -9.49219,-6.79297c-0.14278,-4.31427 -2.30104,-7.50487 -4.35352,-9.45703zM22.73047,45.63086c2.00754,1.78918 4.28173,4.89146 4.36328,9.16602c-2.19037,1.72578 -3.90488,4.57522 -4.98437,7.74805c-0.03444,-4.75461 0.18193,-10.66326 0.62109,-16.91406zM77.25391,45.63281c0.43887,6.24566 0.65532,12.15248 0.62109,16.90625c-1.07983,-3.16945 -2.79436,-6.01534 -4.98242,-7.74023c0.08085,-4.27412 2.35397,-7.37626 4.36133,-9.16602zM69.50586,47.57422c-0.11286,-0.00175 -0.223,0.03473 -0.3125,0.10352c-1.67828,1.25718 -3.21748,2.76689 -4.59766,4.51172c-0.11793,0.13926 -0.15063,0.33171 -0.08532,0.50211c0.06531,0.1704 0.21826,0.29169 0.39906,0.31646c0.1808,0.02477 0.36074,-0.05092 0.46947,-0.19748c1.32982,-1.68117 2.80835,-3.12921 4.41406,-4.33203c0.17402,-0.12666 0.24747,-0.35047 0.18234,-0.55562c-0.06513,-0.20515 -0.25423,-0.3456 -0.46945,-0.34868zM27.76758,55.53906c2.45858,0.10431 6.05271,2.55462 8.96289,6.46875c2.88908,3.88575 5.13116,9.14636 5.25781,14.7207c-5.00642,-1.33076 -10.34683,-3.49251 -14.36914,-5.46484c-0.03924,-0.02699 -0.08036,-0.05114 -0.12305,-0.07227c-1.60826,-0.77857 -2.99359,-1.51932 -4.01562,-2.14453l-0.00195,-0.00195c-0.54265,-0.34638 -0.92256,-0.82461 -1.10352,-1.36328c-0.08542,-0.25473 -0.13862,-0.51462 -0.15234,-0.75977v-0.00391c-0.01195,-0.24001 -0.0172,-0.51325 -0.02734,-0.76367c0.80033,-4.29421 2.89491,-8.53437 5.57227,-10.61523zM72.21875,55.53906c2.67581,2.07966 4.7709,6.31576 5.57227,10.60742c-0.01033,0.25496 -0.01709,0.53315 -0.0293,0.77734c0,0.00065 0,0.0013 0,0.00195c-0.04082,0.86879 -0.48647,1.64102 -1.24609,2.11328l-0.00195,0.00195c-1.02314,0.62642 -2.41368,1.37113 -4.02539,2.15039c-0.05199,0.02559 -0.10165,0.05565 -0.14844,0.08984c-4.01777,1.96815 -9.33742,4.12133 -14.32812,5.44727c0.12641,-5.57452 2.36428,-10.83499 5.25,-14.7207c2.9068,-3.9141 6.49855,-6.36444 8.95703,-6.46875zM28.31055,72.69141c4.07668,1.92118 9.15979,3.92662 13.96875,5.15234c0.05411,0.04064 0.1159,0.06988 0.18164,0.08594c1.80877,0.44084 3.5852,0.77355 5.20898,0.92187c0.0012,0.00011 0.00271,-0.00011 0.00391,0c0.40662,0.05507 0.80286,0.09189 1.18945,0.11523h0.00195c0.38615,0.024 0.7642,0.0331 1.12891,0.0332c0.00126,0 0.00264,0 0.00391,0c0.7286,-0.00019 1.50255,-0.03751 2.31445,-0.14844c0.0012,-0.00011 0.00271,0.00011 0.00391,0c1.62336,-0.14931 3.39913,-0.48101 5.20898,-0.92187c0.06256,-0.01525 0.12158,-0.04244 0.17383,-0.08008c4.8084,-1.22281 9.89292,-3.22816 13.97266,-5.15039c-1.02065,2.70771 -3.9461,6.41906 -7.73828,9.42969c-4.19748,3.33239 -9.4041,5.8457 -13.94141,5.8457c-4.53727,0 -9.74391,-2.51318 -13.94141,-5.8457c-3.79587,-3.01366 -6.72234,-6.72946 -7.74023,-9.4375z"></path></g></g></g></svg>